# xmcd CD database file
#
# Track frame offsets:
#	150
#	19527
#	49994
#	71844
#	95589
#	121016
#	142942
#	168367
#	204585
#	221587
#	240479
#
# Disc length: 3703 seconds
#
# Revision: 0
# Processed by: cddbd v1.5.2PL0 Copyright (c) Steve Scherf et al.
# Submitted via: CDex 1.51
#
DISCID=960e750b
DTITLE=Ensemble FisFüz - Ashure
DYEAR=2010
DGENRE=Jazz
TTITLE0=KücüK Boga
TTITLE1=Odyssey To The Dreams
TTITLE2=Baliklarin Dansi
TTITLE3=Yaktin Beni Roman Kusu
TTITLE4=Dusty City
TTITLE5=I Prefer Indian Mango
TTITLE6=The Rattlesnake
TTITLE7=The Unanswered Question
TTITLE8=See You By The River
TTITLE9=Al Azhar Garden
TTITLE10=Salep And Cinnamon
EXTD=YEAR: 2010
EXTT0=
EXTT1=
EXTT2=
EXTT3=
EXTT4=
EXTT5=
EXTT6=
EXTT7=
EXTT8=
EXTT9=
EXTT10=
PLAYORDER=
